STARTFONT 2.1
FONT -Sun-Screen-Bold-R-Normal--16-160-72-72-M-100-ISO8859-1
SIZE 16 72 72
FONTBOUNDINGBOX 10 17 0 -5

STARTPROPERTIES 21
FONTNAME_REGISTRY ""
FOUNDRY "Sun"
FAMILY_NAME "Screen"
WEIGHT_NAME "Bold"
SLANT "R"
SETWIDTH_NAME "Normal"
ADD_STYLE_NAME ""
PIXEL_SIZE 16
POINT_SIZE 160
RESOLUTION_X 72
RESOLUTION_Y 72
SPACING "M"
AVERAGE_WIDTH 100
CHARSET_REGISTRY "ISO8859"
CHARSET_ENCODING "1"
WEIGHT 10
X_HEIGHT -1
QUAD_WIDTH 10
DEFAULT_CHAR 32
FONT_DESCENT 5
FONT_ASCENT 12
ENDPROPERTIES

CHARS 191

STARTCHAR <unknown>
ENCODING 32
SWIDTH 42 0
DWIDTH 10 0
BBX 10 17 0 -5
BITMAP
0000
0000
0000
0000
0000
0000
0000
0000
0000
0000
0000
0000
0000
0000
0000
0000
0000
ENDCHAR

STARTCHAR <unknown>
ENCODING 33
SWIDTH 42 0
DWIDTH 10 0
BBX 10 17 0 -5
BITMAP
0000
0C00
0C00
0C00
0C00
0C00
0C00
0C00
0C00
0000
0000
0C00
0C00
0000
0000
0000
0000
ENDCHAR

STARTCHAR <unknown>
ENCODING 34
SWIDTH 42 0
DWIDTH 10 0
BBX 10 17 0 -5
BITMAP
0000
3300
3300
3300
3300
0000
0000
0000
0000
0000
0000
0000
0000
0000
0000
0000
0000
ENDCHAR

STARTCHAR <unknown>
ENCODING 35
SWIDTH 42 0
DWIDTH 10 0
BBX 10 17 0 -5
BITMAP
0000
0000
3300
3300
3300
7F80
3300
3300
3300
7F80
3300
3300
3300
0000
0000
0000
0000
ENDCHAR

STARTCHAR <unknown>
ENCODING 36
SWIDTH 42 0
DWIDTH 10 0
BBX 10 17 0 -5
BITMAP
0000
0C00
0C00
3F00
6D80
6D80
6C00
3C00
0F00
0D80
6D80
6D80
3F00
0C00
0C00
0000
0000
ENDCHAR

STARTCHAR <unknown>
ENCODING 37
SWIDTH 42 0
DWIDTH 10 0
BBX 10 17 0 -5
BITMAP
0000
3800
6C00
6C00
6D80
3B00
0600
0C00
1800
3700
6D80
0D80
0D80
0700
0000
0000
0000
ENDCHAR

STARTCHAR <unknown>
ENCODING 38
SWIDTH 42 0
DWIDTH 10 0
BBX 10 17 0 -5
BITMAP
0000
0000
1C00
3600
3600
3C00
1800
3D80
6700
6200
6300
7780
3CC0
0000
0000
0000
0000
ENDCHAR

STARTCHAR <unknown>
ENCODING 39
SWIDTH 42 0
DWIDTH 10 0
BBX 10 17 0 -5
BITMAP
0000
0600
0600
0C00
1800
0000
0000
0000
0000
0000
0000
0000
0000
0000
0000
0000
0000
ENDCHAR

STARTCHAR <unknown>
ENCODING 40
SWIDTH 42 0
DWIDTH 10 0
BBX 10 17 0 -5
BITMAP
0000
0300
0600
0C00
0C00
1800
1800
1800
1800
1800
1800
0C00
0C00
0600
0300
0000
0000
ENDCHAR

STARTCHAR <unknown>
ENCODING 41
SWIDTH 42 0
DWIDTH 10 0
BBX 10 17 0 -5
BITMAP
0000
1800
0C00
0600
0600
0300
0300
0300
0300
0300
0300
0600
0600
0C00
1800
0000
0000
ENDCHAR

STARTCHAR <unknown>
ENCODING 42
SWIDTH 42 0
DWIDTH 10 0
BBX 10 17 0 -5
BITMAP
0000
0000
0000
0C00
6D80
3F00
1E00
3F00
6D80
0C00
0000
0000
0000
0000
0000
0000
0000
ENDCHAR

STARTCHAR <unknown>
ENCODING 43
SWIDTH 42 0
DWIDTH 10 0
BBX 10 17 0 -5
BITMAP
0000
0000
0000
0000
0C00
0C00
0C00
7F80
0C00
0C00
0C00
0000
0000
0000
0000
0000
0000
ENDCHAR

STARTCHAR <unknown>
ENCODING 44
SWIDTH 42 0
DWIDTH 10 0
BBX 10 17 0 -5
BITMAP
0000
0000
0000
0000
0000
0000
0000
0000
0000
0000
0000
0C00
0C00
0400
0C00
1800
0000
ENDCHAR

STARTCHAR <unknown>
ENCODING 45
SWIDTH 42 0
DWIDTH 10 0
BBX 10 17 0 -5
BITMAP
0000
0000
0000
0000
0000
0000
0000
7F80
0000
0000
0000
0000
0000
0000
0000
0000
0000
ENDCHAR

STARTCHAR <unknown>
ENCODING 46
SWIDTH 42 0
DWIDTH 10 0
BBX 10 17 0 -5
BITMAP
0000
0000
0000
0000
0000
0000
0000
0000
0000
0000
0000
0C00
0C00
0000
0000
0000
0000
ENDCHAR

STARTCHAR <unknown>
ENCODING 47
SWIDTH 42 0
DWIDTH 10 0
BBX 10 17 0 -5
BITMAP
0000
0180
0300
0300
0600
0600
0C00
0C00
1800
1800
3000
3000
6000
6000
0000
0000
0000
ENDCHAR

STARTCHAR <unknown>
ENCODING 48
SWIDTH 42 0
DWIDTH 10 0
BBX 10 17 0 -5
BITMAP
0000
0000
0E00
1100
3180
3180
3180
3180
3180
3180
3180
1100
0E00
0000
0000
0000
0000
ENDCHAR

STARTCHAR <unknown>
ENCODING 49
SWIDTH 42 0
DWIDTH 10 0
BBX 10 17 0 -5
BITMAP
0000
0000
0C00
1C00
2C00
0C00
0C00
0C00
0C00
0C00
0C00
0C00
3F00
0000
0000
0000
0000
ENDCHAR

STARTCHAR <unknown>
ENCODING 50
SWIDTH 42 0
DWIDTH 10 0
BBX 10 17 0 -5
BITMAP
0000
0000
1F00
3180
3180
0180
0300
0600
0C00
1800
3000
6000
7F80
0000
0000
0000
0000
ENDCHAR

STARTCHAR <unknown>
ENCODING 51
SWIDTH 42 0
DWIDTH 10 0
BBX 10 17 0 -5
BITMAP
0000
0000
1F00
3180
3180
0180
0180
0F00
0180
0180
6180
6180
3F00
0000
0000
0000
0000
ENDCHAR

STARTCHAR <unknown>
ENCODING 52
SWIDTH 42 0
DWIDTH 10 0
BBX 10 17 0 -5
BITMAP
0000
0000
0100
0300
0700
0B00
1300
2300
4300
7F80
0300
0300
0300
0000
0000
0000
0000
ENDCHAR

STARTCHAR <unknown>
ENCODING 53
SWIDTH 42 0
DWIDTH 10 0
BBX 10 17 0 -5
BITMAP
0000
0000
3F80
3000
3000
3000
3F00
0180
0180
0180
6180
6300
3E00
0000
0000
0000
0000
ENDCHAR

STARTCHAR <unknown>
ENCODING 54
SWIDTH 42 0
DWIDTH 10 0
BBX 10 17 0 -5
BITMAP
0000
0000
1E00
3300
6000
6000
6E00
7300
6180
6180
6180
3300
1E00
0000
0000
0000
0000
ENDCHAR

STARTCHAR <unknown>
ENCODING 55
SWIDTH 42 0
DWIDTH 10 0
BBX 10 17 0 -5
BITMAP
0000
0000
7F80
4180
0180
0300
0300
0600
0600
0600
0C00
0C00
0C00
0000
0000
0000
0000
ENDCHAR

STARTCHAR <unknown>
ENCODING 56
SWIDTH 42 0
DWIDTH 10 0
BBX 10 17 0 -5
BITMAP
0000
0000
1E00
3300
3300
3300
1E00
3300
6180
6180
6180
3300
1E00
0000
0000
0000
0000
ENDCHAR

STARTCHAR <unknown>
ENCODING 57
SWIDTH 42 0
DWIDTH 10 0
BBX 10 17 0 -5
BITMAP
0000
0000
1E00
3300
6180
6180
6180
3380
1D80
0180
0180
3300
1E00
0000
0000
0000
0000
ENDCHAR

STARTCHAR <unknown>
ENCODING 58
SWIDTH 42 0
DWIDTH 10 0
BBX 10 17 0 -5
BITMAP
0000
0000
0000
0000
0000
0C00
0C00
0000
0000
0000
0000
0C00
0C00
0000
0000
0000
0000
ENDCHAR

STARTCHAR <unknown>
ENCODING 59
SWIDTH 42 0
DWIDTH 10 0
BBX 10 17 0 -5
BITMAP
0000
0000
0000
0000
0000
0C00
0C00
0000
0000
0000
0000
0C00
0C00
0400
0C00
1800
0000
ENDCHAR

STARTCHAR <unknown>
ENCODING 60
SWIDTH 42 0
DWIDTH 10 0
BBX 10 17 0 -5
BITMAP
0000
0000
0180
0300
0600
0C00
1800
3000
1800
0C00
0600
0300
0180
0000
0000
0000
0000
ENDCHAR

STARTCHAR <unknown>
ENCODING 61
SWIDTH 42 0
DWIDTH 10 0
BBX 10 17 0 -5
BITMAP
0000
0000
0000
0000
0000
0000
7F80
0000
7F80
0000
0000
0000
0000
0000
0000
0000
0000
ENDCHAR

STARTCHAR <unknown>
ENCODING 62
SWIDTH 42 0
DWIDTH 10 0
BBX 10 17 0 -5
BITMAP
0000
0000
3000
1800
0C00
0600
0300
0180
0300
0600
0C00
1800
3000
0000
0000
0000
0000
ENDCHAR

STARTCHAR <unknown>
ENCODING 63
SWIDTH 42 0
DWIDTH 10 0
BBX 10 17 0 -5
BITMAP
0000
1E00
3300
6180
0180
0300
0600
0C00
0C00
0000
0000
0C00
0C00
0000
0000
0000
0000
ENDCHAR

STARTCHAR <unknown>
ENCODING 64
SWIDTH 42 0
DWIDTH 10 0
BBX 10 17 0 -5
BITMAP
0000
0000
1E00
3300
6180
6780
6980
6980
6700
6000
6180
3300
1E00
0000
0000
0000
0000
ENDCHAR

STARTCHAR <unknown>
ENCODING 65
SWIDTH 42 0
DWIDTH 10 0
BBX 10 17 0 -5
BITMAP
0000
0C00
0C00
0C00
1600
1600
1600
3300
3300
3F00
6180
6180
6180
0000
0000
0000
0000
ENDCHAR

STARTCHAR <unknown>
ENCODING 66
SWIDTH 42 0
DWIDTH 10 0
BBX 10 17 0 -5
BITMAP
0000
7C00
6600
6300
6300
6300
7E00
6300
6180
6180
6180
6300
7E00
0000
0000
0000
0000
ENDCHAR

STARTCHAR <unknown>
ENCODING 67
SWIDTH 42 0
DWIDTH 10 0
BBX 10 17 0 -5
BITMAP
0000
1E00
3300
6180
6000
6000
6000
6000
6000
6000
6180
3300
1E00
0000
0000
0000
0000
ENDCHAR

STARTCHAR <unknown>
ENCODING 68
SWIDTH 42 0
DWIDTH 10 0
BBX 10 17 0 -5
BITMAP
0000
7E00
6300
6180
6180
6180
6180
6180
6180
6180
6180
6300
7E00
0000
0000
0000
0000
ENDCHAR

STARTCHAR <unknown>
ENCODING 69
SWIDTH 42 0
DWIDTH 10 0
BBX 10 17 0 -5
BITMAP
0000
7F80
6000
6000
6000
6000
7F00
6000
6000
6000
6000
6000
7F80
0000
0000
0000
0000
ENDCHAR

STARTCHAR <unknown>
ENCODING 70
SWIDTH 42 0
DWIDTH 10 0
BBX 10 17 0 -5
BITMAP
0000
7F80
6000
6000
6000
6000
7F00
6000
6000
6000
6000
6000
6000
0000
0000
0000
0000
ENDCHAR

STARTCHAR <unknown>
ENCODING 71
SWIDTH 42 0
DWIDTH 10 0
BBX 10 17 0 -5
BITMAP
0000
1E00
3300
6180
6000
6000
6000
6780
6180
6180
6180
3380
1D80
0000
0000
0000
0000
ENDCHAR

STARTCHAR <unknown>
ENCODING 72
SWIDTH 42 0
DWIDTH 10 0
BBX 10 17 0 -5
BITMAP
0000
6180
6180
6180
6180
6180
7F80
6180
6180
6180
6180
6180
6180
0000
0000
0000
0000
ENDCHAR

STARTCHAR <unknown>
ENCODING 73
SWIDTH 42 0
DWIDTH 10 0
BBX 10 17 0 -5
BITMAP
0000
3F00
0C00
0C00
0C00
0C00
0C00
0C00
0C00
0C00
0C00
0C00
3F00
0000
0000
0000
0000
ENDCHAR

STARTCHAR <unknown>
ENCODING 74
SWIDTH 42 0
DWIDTH 10 0
BBX 10 17 0 -5
BITMAP
0000
1FC0
0300
0300
0300
0300
0300
0300
0300
0300
6300
3600
1C00
0000
0000
0000
0000
ENDCHAR

STARTCHAR <unknown>
ENCODING 75
SWIDTH 42 0
DWIDTH 10 0
BBX 10 17 0 -5
BITMAP
0000
6180
6300
6600
6C00
7800
6C00
6C00
6600
6600
6300
6300
6180
0000
0000
0000
0000
ENDCHAR

STARTCHAR <unknown>
ENCODING 76
SWIDTH 42 0
DWIDTH 10 0
BBX 10 17 0 -5
BITMAP
0000
6000
6000
6000
6000
6000
6000
6000
6000
6000
6000
6000
7F80
0000
0000
0000
0000
ENDCHAR

STARTCHAR <unknown>
ENCODING 77
SWIDTH 42 0
DWIDTH 10 0
BBX 10 17 0 -5
BITMAP
0000
4080
6180
6180
7380
7380
6D80
6D80
6D80
6180
6180
6180
6180
0000
0000
0000
0000
ENDCHAR

STARTCHAR <unknown>
ENCODING 78
SWIDTH 42 0
DWIDTH 10 0
BBX 10 17 0 -5
BITMAP
0000
6180
6180
7180
7180
6980
6980
6580
6580
6380
6380
6180
6180
0000
0000
0000
0000
ENDCHAR

STARTCHAR <unknown>
ENCODING 79
SWIDTH 42 0
DWIDTH 10 0
BBX 10 17 0 -5
BITMAP
0000
1E00
3300
6180
6180
6180
6180
6180
6180
6180
6180
3300
1E00
0000
0000
0000
0000
ENDCHAR

STARTCHAR <unknown>
ENCODING 80
SWIDTH 42 0
DWIDTH 10 0
BBX 10 17 0 -5
BITMAP
0000
7E00
6300
6180
6180
6180
6300
7E00
6000
6000
6000
6000
6000
0000
0000
0000
0000
ENDCHAR

STARTCHAR <unknown>
ENCODING 81
SWIDTH 42 0
DWIDTH 10 0
BBX 10 17 0 -5
BITMAP
0000
1E00
3300
6180
6180
6180
6180
6180
6180
6180
6180
3300
1E00
0C00
0600
0380
0000
ENDCHAR

STARTCHAR <unknown>
ENCODING 82
SWIDTH 42 0
DWIDTH 10 0
BBX 10 17 0 -5
BITMAP
0000
7E00
6300
6180
6180
6180
6300
7E00
6600
6300
6300
6180
6180
0000
0000
0000
0000
ENDCHAR

STARTCHAR <unknown>
ENCODING 83
SWIDTH 42 0
DWIDTH 10 0
BBX 10 17 0 -5
BITMAP
0000
1E00
3300
6180
6000
3800
0E00
0300
0180
0180
6180
3300
1E00
0000
0000
0000
0000
ENDCHAR

STARTCHAR <unknown>
ENCODING 84
SWIDTH 42 0
DWIDTH 10 0
BBX 10 17 0 -5
BITMAP
0000
FFC0
0C00
0C00
0C00
0C00
0C00
0C00
0C00
0C00
0C00
0C00
0C00
0000
0000
0000
0000
ENDCHAR

STARTCHAR <unknown>
ENCODING 85
SWIDTH 42 0
DWIDTH 10 0
BBX 10 17 0 -5
BITMAP
0000
6180
6180
6180
6180
6180
6180
6180
6180
6180
6180
3300
1E00
0000
0000
0000
0000
ENDCHAR

STARTCHAR <unknown>
ENCODING 86
SWIDTH 42 0
DWIDTH 10 0
BBX 10 17 0 -5
BITMAP
0000
6180
6180
6180
2300
3300
3300
1600
1600
1E00
0C00
0C00
0C00
0000
0000
0000
0000
ENDCHAR

STARTCHAR <unknown>
ENCODING 87
SWIDTH 42 0
DWIDTH 10 0
BBX 10 17 0 -5
BITMAP
0000
4180
4180
4980
4980
4980
5D80
7580
3700
2300
2300
2300
2300
0000
0000
0000
0000
ENDCHAR

STARTCHAR <unknown>
ENCODING 88
SWIDTH 42 0
DWIDTH 10 0
BBX 10 17 0 -5
BITMAP
0000
6180
6180
3300
3300
1E00
0C00
0C00
1E00
3300
3300
6180
6180
0000
0000
0000
0000
ENDCHAR

STARTCHAR <unknown>
ENCODING 89
SWIDTH 42 0
DWIDTH 10 0
BBX 10 17 0 -5
BITMAP
0000
6180
6180
3300
3300
1200
1E00
0C00
0C00
0C00
0C00
0C00
0C00
0000
0000
0000
0000
ENDCHAR

STARTCHAR <unknown>
ENCODING 90
SWIDTH 42 0
DWIDTH 10 0
BBX 10 17 0 -5
BITMAP
0000
7F80
0300
0300
0600
0600
0C00
0C00
1800
1800
3000
3000
7F80
0000
0000
0000
0000
ENDCHAR

STARTCHAR <unknown>
ENCODING 91
SWIDTH 42 0
DWIDTH 10 0
BBX 10 17 0 -5
BITMAP
0000
1F00
1800
1800
1800
1800
1800
1800
1800
1800
1800
1800
1800
1800
1F00
0000
0000
ENDCHAR

STARTCHAR <unknown>
ENCODING 92
SWIDTH 42 0
DWIDTH 10 0
BBX 10 17 0 -5
BITMAP
0000
6000
3000
3000
1800
1800
0C00
0C00
0600
0600
0300
0300
0180
0180
0000
0000
0000
ENDCHAR

STARTCHAR <unknown>
ENCODING 93
SWIDTH 42 0
DWIDTH 10 0
BBX 10 17 0 -5
BITMAP
0000
3E00
0600
0600
0600
0600
0600
0600
0600
0600
0600
0600
0600
0600
3E00
0000
0000
ENDCHAR

STARTCHAR <unknown>
ENCODING 94
SWIDTH 42 0
DWIDTH 10 0
BBX 10 17 0 -5
BITMAP
0000
0000
0C00
1E00
3300
6180
0000
0000
0000
0000
0000
0000
0000
0000
0000
0000
0000
ENDCHAR

STARTCHAR <unknown>
ENCODING 95
SWIDTH 42 0
DWIDTH 10 0
BBX 10 17 0 -5
BITMAP
0000
0000
0000
0000
0000
0000
0000
0000
0000
0000
0000
0000
0000
7FC0
0000
0000
0000
ENDCHAR

STARTCHAR <unknown>
ENCODING 96
SWIDTH 42 0
DWIDTH 10 0
BBX 10 17 0 -5
BITMAP
0000
1800
1800
0C00
0600
0000
0000
0000
0000
0000
0000
0000
0000
0000
0000
0000
0000
ENDCHAR

STARTCHAR <unknown>
ENCODING 97
SWIDTH 42 0
DWIDTH 10 0
BBX 10 17 0 -5
BITMAP
0000
0000
0000
0000
0000
3E00
0300
0300
1F00
3300
6300
6300
3D80
0000
0000
0000
0000
ENDCHAR

STARTCHAR <unknown>
ENCODING 98
SWIDTH 42 0
DWIDTH 10 0
BBX 10 17 0 -5
BITMAP
0000
6000
6000
6000
6000
6E00
7300
6180
6180
6180
6180
7300
6E00
0000
0000
0000
0000
ENDCHAR

STARTCHAR <unknown>
ENCODING 99
SWIDTH 42 0
DWIDTH 10 0
BBX 10 17 0 -5
BITMAP
0000
0000
0000
0000
0000
1F00
3180
6000
6000
6000
6000
3180
1F00
0000
0000
0000
0000
ENDCHAR

STARTCHAR <unknown>
ENCODING 100
SWIDTH 42 0
DWIDTH 10 0
BBX 10 17 0 -5
BITMAP
0000
0180
0180
0180
0180
1D80
3380
6180
6180
6180
6180
3380
1D80
0000
0000
0000
0000
ENDCHAR

STARTCHAR <unknown>
ENCODING 101
SWIDTH 42 0
DWIDTH 10 0
BBX 10 17 0 -5
BITMAP
0000
0000
0000
0000
0000
1E00
3300
6180
7F80
6000
6000
3180
1F00
0000
0000
0000
0000
ENDCHAR

STARTCHAR <unknown>
ENCODING 102
SWIDTH 42 0
DWIDTH 10 0
BBX 10 17 0 -5
BITMAP
0000
0780
0CC0
0C00
0C00
3F00
0C00
0C00
0C00
0C00
0C00
0C00
0C00
0000
0000
0000
0000
ENDCHAR

STARTCHAR <unknown>
ENCODING 103
SWIDTH 42 0
DWIDTH 10 0
BBX 10 17 0 -5
BITMAP
0000
0000
0000
0000
0000
1D80
3380
6180
6180
6180
6180
3380
1D80
0180
0180
3300
1E00
ENDCHAR

STARTCHAR <unknown>
ENCODING 104
SWIDTH 42 0
DWIDTH 10 0
BBX 10 17 0 -5
BITMAP
0000
6000
6000
6000
6000
6E00
7300
6180
6180
6180
6180
6180
6180
0000
0000
0000
0000
ENDCHAR

STARTCHAR <unknown>
ENCODING 105
SWIDTH 42 0
DWIDTH 10 0
BBX 10 17 0 -5
BITMAP
0000
0600
0600
0000
0000
1E00
0600
0600
0600
0600
0600
0600
0600
0000
0000
0000
0000
ENDCHAR

STARTCHAR <unknown>
ENCODING 106
SWIDTH 42 0
DWIDTH 10 0
BBX 10 17 0 -5
BITMAP
0000
0600
0600
0000
0000
1E00
0600
0600
0600
0600
0600
0600
0600
0600
0600
6C00
3800
ENDCHAR

STARTCHAR <unknown>
ENCODING 107
SWIDTH 42 0
DWIDTH 10 0
BBX 10 17 0 -5
BITMAP
0000
6000
6000
6000
6000
6300
6600
6C00
7800
6C00
6600
6300
6180
0000
0000
0000
0000
ENDCHAR

STARTCHAR <unknown>
ENCODING 108
SWIDTH 42 0
DWIDTH 10 0
BBX 10 17 0 -5
BITMAP
0000
1E00
0600
0600
0600
0600
0600
0600
0600
0600
0600
0600
0600
0000
0000
0000
0000
ENDCHAR

STARTCHAR <unknown>
ENCODING 109
SWIDTH 42 0
DWIDTH 10 0
BBX 10 17 0 -5
BITMAP
0000
0000
0000
0000
0000
5B00
6D80
6D80
6D80
6D80
6D80
6D80
6D80
0000
0000
0000
0000
ENDCHAR

STARTCHAR <unknown>
ENCODING 110
SWIDTH 42 0
DWIDTH 10 0
BBX 10 17 0 -5
BITMAP
0000
0000
0000
0000
0000
6E00
7300
6180
6180
6180
6180
6180
6180
0000
0000
0000
0000
ENDCHAR

STARTCHAR <unknown>
ENCODING 111
SWIDTH 42 0
DWIDTH 10 0
BBX 10 17 0 -5
BITMAP
0000
0000
0000
0000
0000
1E00
3300
6180
6180
6180
6180
3300
1E00
0000
0000
0000
0000
ENDCHAR

STARTCHAR <unknown>
ENCODING 112
SWIDTH 42 0
DWIDTH 10 0
BBX 10 17 0 -5
BITMAP
0000
0000
0000
0000
0000
6E00
7300
6180
6180
6180
6180
7300
6E00
6000
6000
6000
6000
ENDCHAR

STARTCHAR <unknown>
ENCODING 113
SWIDTH 42 0
DWIDTH 10 0
BBX 10 17 0 -5
BITMAP
0000
0000
0000
0000
0000
1D80
3380
6180
6180
6180
6180
3380
1D80
0180
0180
0180
0180
ENDCHAR

STARTCHAR <unknown>
ENCODING 114
SWIDTH 42 0
DWIDTH 10 0
BBX 10 17 0 -5
BITMAP
0000
0000
0000
0000
0000
6F00
7180
6000
6000
6000
6000
6000
6000
0000
0000
0000
0000
ENDCHAR

STARTCHAR <unknown>
ENCODING 115
SWIDTH 42 0
DWIDTH 10 0
BBX 10 17 0 -5
BITMAP
0000
0000
0000
0000
0000
1F00
3180
3000
1C00
0700
0180
6180
3F00
0000
0000
0000
0000
ENDCHAR

STARTCHAR <unknown>
ENCODING 116
SWIDTH 42 0
DWIDTH 10 0
BBX 10 17 0 -5
BITMAP
0000
1800
1800
1800
1800
7E00
1800
1800
1800
1800
1800
1980
0F00
0000
0000
0000
0000
ENDCHAR

STARTCHAR <unknown>
ENCODING 117
SWIDTH 42 0
DWIDTH 10 0
BBX 10 17 0 -5
BITMAP
0000
0000
0000
0000
0000
6180
6180
6180
6180
6180
6180
3380
1D80
0000
0000
0000
0000
ENDCHAR

STARTCHAR <unknown>
ENCODING 118
SWIDTH 42 0
DWIDTH 10 0
BBX 10 17 0 -5
BITMAP
0000
0000
0000
0000
0000
6180
6180
3300
3300
1200
1E00
0C00
0C00
0000
0000
0000
0000
ENDCHAR

STARTCHAR <unknown>
ENCODING 119
SWIDTH 42 0
DWIDTH 10 0
BBX 10 17 0 -5
BITMAP
0000
0000
0000
0000
0000
6180
6D80
6D80
6D80
6D80
6D80
6D80
3300
0000
0000
0000
0000
ENDCHAR

STARTCHAR <unknown>
ENCODING 120
SWIDTH 42 0
DWIDTH 10 0
BBX 10 17 0 -5
BITMAP
0000
0000
0000
0000
0000
6180
3300
1E00
0C00
1E00
3300
6180
4080
0000
0000
0000
0000
ENDCHAR

STARTCHAR <unknown>
ENCODING 121
SWIDTH 42 0
DWIDTH 10 0
BBX 10 17 0 -5
BITMAP
0000
0000
0000
0000
0000
6180
6180
3180
3300
1B00
1B00
0E00
0600
0C00
0C00
1800
7000
ENDCHAR

STARTCHAR <unknown>
ENCODING 122
SWIDTH 42 0
DWIDTH 10 0
BBX 10 17 0 -5
BITMAP
0000
0000
0000
0000
0000
7F80
0300
0600
0C00
1800
3000
6000
7F80
0000
0000
0000
0000
ENDCHAR

STARTCHAR <unknown>
ENCODING 123
SWIDTH 42 0
DWIDTH 10 0
BBX 10 17 0 -5
BITMAP
0000
0700
0C00
0C00
0C00
0C00
0C00
3800
0C00
0C00
0C00
0C00
0C00
0C00
0700
0000
0000
ENDCHAR

STARTCHAR <unknown>
ENCODING 124
SWIDTH 42 0
DWIDTH 10 0
BBX 10 17 0 -5
BITMAP
0000
0C00
0C00
0C00
0C00
0C00
0C00
0000
0000
0C00
0C00
0C00
0C00
0C00
0C00
0000
0000
ENDCHAR

STARTCHAR <unknown>
ENCODING 125
SWIDTH 42 0
DWIDTH 10 0
BBX 10 17 0 -5
BITMAP
0000
3800
0C00
0C00
0C00
0C00
0C00
0700
0C00
0C00
0C00
0C00
0C00
0C00
3800
0000
0000
ENDCHAR

STARTCHAR <unknown>
ENCODING 126
SWIDTH 42 0
DWIDTH 10 0
BBX 10 17 0 -5
BITMAP
0000
0000
3880
6D80
4700
0000
0000
0000
0000
0000
0000
0000
0000
0000
0000
0000
0000
ENDCHAR

STARTCHAR <unknown>
ENCODING 160
SWIDTH 42 0
DWIDTH 10 0
BBX 10 17 0 -5
BITMAP
0000
0000
0000
0000
0000
0000
0000
0000
0000
0000
0000
0000
0000
0000
0000
0000
0000
ENDCHAR

STARTCHAR <unknown>
ENCODING 161
SWIDTH 42 0
DWIDTH 10 0
BBX 10 17 0 -5
BITMAP
0000
0C00
0C00
0000
0000
0C00
0C00
0C00
0C00
0C00
0C00
0C00
0C00
0000
0000
0000
0000
ENDCHAR

STARTCHAR <unknown>
ENCODING 162
SWIDTH 42 0
DWIDTH 10 0
BBX 10 17 0 -5
BITMAP
0000
0000
0000
0000
0400
1F00
3580
6400
6400
6400
6400
3580
1F00
0400
0000
0000
0000
ENDCHAR

STARTCHAR <unknown>
ENCODING 163
SWIDTH 42 0
DWIDTH 10 0
BBX 10 17 0 -5
BITMAP
0000
0000
0F00
1980
1800
1800
1800
7C00
1800
1800
1800
1840
3CC0
6F80
0000
0000
0000
ENDCHAR

STARTCHAR <unknown>
ENCODING 164
SWIDTH 42 0
DWIDTH 10 0
BBX 10 17 0 -5
BITMAP
0000
0000
0000
6180
7F80
3F00
3300
3300
3F00
7F80
6180
0000
0000
0000
0000
0000
0000
ENDCHAR

STARTCHAR <unknown>
ENCODING 165
SWIDTH 42 0
DWIDTH 10 0
BBX 10 17 0 -5
BITMAP
0000
0000
C0C0
6180
3300
1E00
0C00
0C00
3F00
0C00
0C00
0C00
0C00
0000
0000
0000
0000
ENDCHAR

STARTCHAR <unknown>
ENCODING 166
SWIDTH 42 0
DWIDTH 10 0
BBX 10 17 0 -5
BITMAP
0000
0C00
0C00
0C00
0C00
0C00
0C00
0000
0000
0C00
0C00
0C00
0C00
0C00
0C00
0000
0000
ENDCHAR

STARTCHAR <unknown>
ENCODING 167
SWIDTH 42 0
DWIDTH 10 0
BBX 10 17 0 -5
BITMAP
0000
1E00
3300
3000
3000
1E00
3300
3300
1E00
0300
0300
3300
1E00
0000
0000
0000
0000
ENDCHAR

STARTCHAR <unknown>
ENCODING 168
SWIDTH 42 0
DWIDTH 10 0
BBX 10 17 0 -5
BITMAP
0000
0000
1200
1200
0000
0000
0000
0000
0000
0000
0000
0000
0000
0000
0000
0000
0000
ENDCHAR

STARTCHAR <unknown>
ENCODING 169
SWIDTH 42 0
DWIDTH 10 0
BBX 10 17 0 -5
BITMAP
0000
0000
1F00
2080
4E40
5940
5840
5940
4E40
2080
1F00
0000
0000
0000
0000
0000
0000
ENDCHAR

STARTCHAR <unknown>
ENCODING 170
SWIDTH 42 0
DWIDTH 10 0
BBX 10 17 0 -5
BITMAP
0000
0000
0F00
0180
0F80
1980
1980
0F80
0000
1F80
0000
0000
0000
0000
0000
0000
0000
ENDCHAR

STARTCHAR <unknown>
ENCODING 171
SWIDTH 42 0
DWIDTH 10 0
BBX 10 17 0 -5
BITMAP
0000
0000
0000
0000
0000
0000
0D80
1B00
3600
6C00
3600
1B00
0D80
0000
0000
0000
0000
ENDCHAR

STARTCHAR <unknown>
ENCODING 172
SWIDTH 42 0
DWIDTH 10 0
BBX 10 17 0 -5
BITMAP
0000
0000
0000
7F80
7F80
0180
0180
0000
0000
0000
0000
0000
0000
0000
0000
0000
0000
ENDCHAR

STARTCHAR <unknown>
ENCODING 173
SWIDTH 42 0
DWIDTH 10 0
BBX 10 17 0 -5
BITMAP
0000
0000
0000
0000
0000
0000
0000
3F00
3F00
0000
0000
0000
0000
0000
0000
0000
0000
ENDCHAR

STARTCHAR <unknown>
ENCODING 174
SWIDTH 42 0
DWIDTH 10 0
BBX 10 17 0 -5
BITMAP
0000
0000
1F00
2080
5E40
5B40
5E40
5B40
5B40
2080
1F00
0000
0000
0000
0000
0000
0000
ENDCHAR

STARTCHAR <unknown>
ENCODING 175
SWIDTH 42 0
DWIDTH 10 0
BBX 10 17 0 -5
BITMAP
0000
0000
0000
3F00
0000
0000
0000
0000
0000
0000
0000
0000
0000
0000
0000
0000
0000
ENDCHAR

STARTCHAR <unknown>
ENCODING 176
SWIDTH 42 0
DWIDTH 10 0
BBX 10 17 0 -5
BITMAP
0000
0E00
1B00
1B00
0E00
0000
0000
0000
0000
0000
0000
0000
0000
0000
0000
0000
0000
ENDCHAR

STARTCHAR <unknown>
ENCODING 177
SWIDTH 42 0
DWIDTH 10 0
BBX 10 17 0 -5
BITMAP
0000
0000
0000
0C00
0C00
0C00
7F80
7F80
0C00
0C00
0C00
0000
7F80
7F80
0000
0000
0000
ENDCHAR

STARTCHAR <unknown>
ENCODING 178
SWIDTH 42 0
DWIDTH 10 0
BBX 10 17 0 -5
BITMAP
0000
0000
0F00
1980
0180
0300
0600
0C00
1800
1F80
0000
0000
0000
0000
0000
0000
0000
ENDCHAR

STARTCHAR <unknown>
ENCODING 179
SWIDTH 42 0
DWIDTH 10 0
BBX 10 17 0 -5
BITMAP
0000
0000
0F00
1180
0180
0700
0180
1180
1980
0F00
0000
0000
0000
0000
0000
0000
0000
ENDCHAR

STARTCHAR <unknown>
ENCODING 180
SWIDTH 42 0
DWIDTH 10 0
BBX 10 17 0 -5
BITMAP
0000
0600
0400
0800
0000
0000
0000
0000
0000
0000
0000
0000
0000
0000
0000
0000
0000
ENDCHAR

STARTCHAR <unknown>
ENCODING 181
SWIDTH 42 0
DWIDTH 10 0
BBX 10 17 0 -5
BITMAP
0000
0000
0000
0000
0000
0000
3180
3180
3180
3180
3180
3380
3EC0
6000
C000
0000
0000
ENDCHAR

STARTCHAR <unknown>
ENCODING 182
SWIDTH 42 0
DWIDTH 10 0
BBX 10 17 0 -5
BITMAP
0000
1FC0
3980
7980
7980
7980
3980
1980
1980
1980
1980
1980
39C0
0000
0000
0000
0000
ENDCHAR

STARTCHAR <unknown>
ENCODING 183
SWIDTH 42 0
DWIDTH 10 0
BBX 10 17 0 -5
BITMAP
0000
0000
0000
0000
0000
0000
0000
0400
0E00
0400
0000
0000
0000
0000
0000
0000
0000
ENDCHAR

STARTCHAR <unknown>
ENCODING 184
SWIDTH 42 0
DWIDTH 10 0
BBX 10 17 0 -5
BITMAP
0000
0000
0000
0000
0000
0000
0000
0000
0000
0000
0000
0000
0000
0C00
0600
1E00
0000
ENDCHAR

STARTCHAR <unknown>
ENCODING 185
SWIDTH 42 0
DWIDTH 10 0
BBX 10 17 0 -5
BITMAP
0000
0000
0600
0E00
1600
0600
0600
0600
0600
1F80
0000
0000
0000
0000
0000
0000
0000
ENDCHAR

STARTCHAR <unknown>
ENCODING 186
SWIDTH 42 0
DWIDTH 10 0
BBX 10 17 0 -5
BITMAP
0000
0000
0F00
1980
1980
1980
1980
0F00
0000
1F80
0000
0000
0000
0000
0000
0000
0000
ENDCHAR

STARTCHAR <unknown>
ENCODING 187
SWIDTH 42 0
DWIDTH 10 0
BBX 10 17 0 -5
BITMAP
0000
0000
0000
0000
0000
0000
6C00
3600
1B00
0D80
1B00
3600
6C00
0000
0000
0000
0000
ENDCHAR

STARTCHAR <unknown>
ENCODING 188
SWIDTH 42 0
DWIDTH 10 0
BBX 10 17 0 -5
BITMAP
0000
2000
6000
2000
2080
2100
2280
7580
0A80
1480
27C0
0080
0080
0000
0000
0000
0000
ENDCHAR

STARTCHAR <unknown>
ENCODING 189
SWIDTH 42 0
DWIDTH 10 0
BBX 10 17 0 -5
BITMAP
0000
2000
6000
2000
2080
2100
2200
7580
0A40
1040
2080
0100
0200
03C0
0000
0000
0000
ENDCHAR

STARTCHAR <unknown>
ENCODING 190
SWIDTH 42 0
DWIDTH 10 0
BBX 10 17 0 -5
BITMAP
0000
3000
4800
0800
3080
0900
4A80
3580
0A80
1480
27C0
0080
0080
0000
0000
0000
0000
ENDCHAR

STARTCHAR <unknown>
ENCODING 191
SWIDTH 42 0
DWIDTH 10 0
BBX 10 17 0 -5
BITMAP
0000
0400
0E00
0400
0000
0400
0C00
1800
3000
6180
6180
3300
1E00
0000
0000
0000
0000
ENDCHAR

STARTCHAR <unknown>
ENCODING 192
SWIDTH 42 0
DWIDTH 10 0
BBX 10 17 0 -5
BITMAP
1800
0C00
0000
0C00
0C00
1600
1600
3300
3300
3F00
6180
6180
6180
0000
0000
0000
0000
ENDCHAR

STARTCHAR <unknown>
ENCODING 193
SWIDTH 42 0
DWIDTH 10 0
BBX 10 17 0 -5
BITMAP
0600
0C00
0000
0C00
0C00
1600
1600
3300
3300
3F00
6180
6180
6180
0000
0000
0000
0000
ENDCHAR

STARTCHAR <unknown>
ENCODING 194
SWIDTH 42 0
DWIDTH 10 0
BBX 10 17 0 -5
BITMAP
0C00
1600
2300
0C00
0C00
1600
1600
3300
3300
3F00
6180
6180
6180
0000
0000
0000
0000
ENDCHAR

STARTCHAR <unknown>
ENCODING 195
SWIDTH 42 0
DWIDTH 10 0
BBX 10 17 0 -5
BITMAP
1D00
2E00
0000
0C00
0C00
1600
1600
3300
3300
3F00
6180
6180
6180
0000
0000
0000
0000
ENDCHAR

STARTCHAR <unknown>
ENCODING 196
SWIDTH 42 0
DWIDTH 10 0
BBX 10 17 0 -5
BITMAP
3300
3300
0000
0C00
0C00
1600
1600
3300
3300
3F00
6180
6180
6180
0000
0000
0000
0000
ENDCHAR

STARTCHAR <unknown>
ENCODING 197
SWIDTH 42 0
DWIDTH 10 0
BBX 10 17 0 -5
BITMAP
0C00
1200
1200
0C00
0C00
1600
1600
3300
3300
3F00
6180
6180
6180
0000
0000
0000
0000
ENDCHAR

STARTCHAR <unknown>
ENCODING 198
SWIDTH 42 0
DWIDTH 10 0
BBX 10 17 0 -5
BITMAP
0000
07C0
0E00
0E00
1600
1600
1780
2600
3E00
2600
6600
4600
47C0
0000
0000
0000
0000
ENDCHAR

STARTCHAR <unknown>
ENCODING 199
SWIDTH 42 0
DWIDTH 10 0
BBX 10 17 0 -5
BITMAP
0000
1E00
3300
6180
6000
6000
6000
6000
6000
6000
6180
3300
1E00
0C00
0600
1E00
0000
ENDCHAR

STARTCHAR <unknown>
ENCODING 200
SWIDTH 42 0
DWIDTH 10 0
BBX 10 17 0 -5
BITMAP
1800
0C00
0000
7F80
6000
6000
6000
7F00
6000
6000
6000
6000
7F80
0000
0000
0000
0000
ENDCHAR

STARTCHAR <unknown>
ENCODING 201
SWIDTH 42 0
DWIDTH 10 0
BBX 10 17 0 -5
BITMAP
0600
0C00
0000
7F80
6000
6000
6000
7F00
6000
6000
6000
6000
7F80
0000
0000
0000
0000
ENDCHAR

STARTCHAR <unknown>
ENCODING 202
SWIDTH 42 0
DWIDTH 10 0
BBX 10 17 0 -5
BITMAP
0C00
1600
0000
7F80
6000
6000
6000
7F00
6000
6000
6000
6000
7F80
0000
0000
0000
0000
ENDCHAR

STARTCHAR <unknown>
ENCODING 203
SWIDTH 42 0
DWIDTH 10 0
BBX 10 17 0 -5
BITMAP
3300
3300
0000
7F80
6000
6000
6000
7F00
6000
6000
6000
6000
7F80
0000
0000
0000
0000
ENDCHAR

STARTCHAR <unknown>
ENCODING 204
SWIDTH 42 0
DWIDTH 10 0
BBX 10 17 0 -5
BITMAP
1800
0C00
0000
3F00
0C00
0C00
0C00
0C00
0C00
0C00
0C00
0C00
3F00
0000
0000
0000
0000
ENDCHAR

STARTCHAR <unknown>
ENCODING 205
SWIDTH 42 0
DWIDTH 10 0
BBX 10 17 0 -5
BITMAP
0600
0C00
0000
3F00
0C00
0C00
0C00
0C00
0C00
0C00
0C00
0C00
3F00
0000
0000
0000
0000
ENDCHAR

STARTCHAR <unknown>
ENCODING 206
SWIDTH 42 0
DWIDTH 10 0
BBX 10 17 0 -5
BITMAP
0C00
1600
0000
3F00
0C00
0C00
0C00
0C00
0C00
0C00
0C00
0C00
3F00
0000
0000
0000
0000
ENDCHAR

STARTCHAR <unknown>
ENCODING 207
SWIDTH 42 0
DWIDTH 10 0
BBX 10 17 0 -5
BITMAP
3300
3300
0000
3F00
0C00
0C00
0C00
0C00
0C00
0C00
0C00
0C00
3F00
0000
0000
0000
0000
ENDCHAR

STARTCHAR <unknown>
ENCODING 208
SWIDTH 42 0
DWIDTH 10 0
BBX 10 17 0 -5
BITMAP
0000
3E00
3300
3180
3180
3180
7980
3180
3180
3180
3180
3300
3E00
0000
0000
0000
0000
ENDCHAR

STARTCHAR <unknown>
ENCODING 209
SWIDTH 42 0
DWIDTH 10 0
BBX 10 17 0 -5
BITMAP
1D00
2E00
0000
6180
7180
7180
6980
6980
6580
6580
6380
6380
6180
0000
0000
0000
0000
ENDCHAR

STARTCHAR <unknown>
ENCODING 210
SWIDTH 42 0
DWIDTH 10 0
BBX 10 17 0 -5
BITMAP
1800
0C00
0000
1E00
3300
6180
6180
6180
6180
6180
6180
3300
1E00
0000
0000
0000
0000
ENDCHAR

STARTCHAR <unknown>
ENCODING 211
SWIDTH 42 0
DWIDTH 10 0
BBX 10 17 0 -5
BITMAP
0600
0C00
0000
1E00
3300
6180
6180
6180
6180
6180
6180
3300
1E00
0000
0000
0000
0000
ENDCHAR

STARTCHAR <unknown>
ENCODING 212
SWIDTH 42 0
DWIDTH 10 0
BBX 10 17 0 -5
BITMAP
0C00
1600
0000
1E00
3300
6180
6180
6180
6180
6180
6180
3300
1E00
0000
0000
0000
0000
ENDCHAR

STARTCHAR <unknown>
ENCODING 213
SWIDTH 42 0
DWIDTH 10 0
BBX 10 17 0 -5
BITMAP
1D00
2E00
0000
1E00
3300
6180
6180
6180
6180
6180
6180
3300
1E00
0000
0000
0000
0000
ENDCHAR

STARTCHAR <unknown>
ENCODING 214
SWIDTH 42 0
DWIDTH 10 0
BBX 10 17 0 -5
BITMAP
3300
3300
0000
1E00
3300
6180
6180
6180
6180
6180
6180
3300
1E00
0000
0000
0000
0000
ENDCHAR

STARTCHAR <unknown>
ENCODING 215
SWIDTH 42 0
DWIDTH 10 0
BBX 10 17 0 -5
BITMAP
0000
0000
0000
0000
6180
3300
1E00
0C00
1E00
3300
6180
0000
0000
0000
0000
0000
0000
ENDCHAR

STARTCHAR <unknown>
ENCODING 216
SWIDTH 42 0
DWIDTH 10 0
BBX 10 17 0 -5
BITMAP
0000
0200
1F00
2380
6780
6580
6580
6D80
6980
6980
7980
7300
3E00
1000
0000
0000
0000
ENDCHAR

STARTCHAR <unknown>
ENCODING 217
SWIDTH 42 0
DWIDTH 10 0
BBX 10 17 0 -5
BITMAP
1800
0C00
0000
6180
6180
6180
6180
6180
6180
6180
6180
3300
1E00
0000
0000
0000
0000
ENDCHAR

STARTCHAR <unknown>
ENCODING 218
SWIDTH 42 0
DWIDTH 10 0
BBX 10 17 0 -5
BITMAP
0600
0C00
0000
6180
6180
6180
6180
6180
6180
6180
6180
3300
1E00
0000
0000
0000
0000
ENDCHAR

STARTCHAR <unknown>
ENCODING 219
SWIDTH 42 0
DWIDTH 10 0
BBX 10 17 0 -5
BITMAP
0C00
1600
0000
6180
6180
6180
6180
6180
6180
6180
6180
3300
1E00
0000
0000
0000
0000
ENDCHAR

STARTCHAR <unknown>
ENCODING 220
SWIDTH 42 0
DWIDTH 10 0
BBX 10 17 0 -5
BITMAP
3300
3300
0000
6180
6180
6180
6180
6180
6180
6180
6180
3300
1E00
0000
0000
0000
0000
ENDCHAR

STARTCHAR <unknown>
ENCODING 221
SWIDTH 42 0
DWIDTH 10 0
BBX 10 17 0 -5
BITMAP
0600
0C00
6180
6180
3300
3300
1200
1E00
0C00
0C00
0C00
0C00
0C00
0000
0000
0000
0000
ENDCHAR

STARTCHAR <unknown>
ENCODING 222
SWIDTH 42 0
DWIDTH 10 0
BBX 10 17 0 -5
BITMAP
7800
3000
3F00
3180
30C0
30C0
3180
3F00
3000
3000
3000
3000
7800
0000
0000
0000
0000
ENDCHAR

STARTCHAR <unknown>
ENCODING 223
SWIDTH 42 0
DWIDTH 10 0
BBX 10 17 0 -5
BITMAP
0000
1C00
3600
2300
6300
6300
6600
6300
6180
6180
6180
6300
6600
0000
0000
0000
0000
ENDCHAR

STARTCHAR <unknown>
ENCODING 224
SWIDTH 42 0
DWIDTH 10 0
BBX 10 17 0 -5
BITMAP
0000
1800
0800
0400
0000
3E00
0300
0300
3F00
6300
6300
6300
3D80
0000
0000
0000
0000
ENDCHAR

STARTCHAR <unknown>
ENCODING 225
SWIDTH 42 0
DWIDTH 10 0
BBX 10 17 0 -5
BITMAP
0000
0600
0400
0800
0000
3E00
0300
0300
3F00
6300
6300
6300
3D80
0000
0000
0000
0000
ENDCHAR

STARTCHAR <unknown>
ENCODING 226
SWIDTH 42 0
DWIDTH 10 0
BBX 10 17 0 -5
BITMAP
0000
0C00
1E00
3300
0000
3E00
0300
0300
3F00
6300
6300
6300
3D80
0000
0000
0000
0000
ENDCHAR

STARTCHAR <unknown>
ENCODING 227
SWIDTH 42 0
DWIDTH 10 0
BBX 10 17 0 -5
BITMAP
0000
1D00
2E00
0000
0000
3E00
0300
0300
3F00
6300
6300
6300
3D80
0000
0000
0000
0000
ENDCHAR

STARTCHAR <unknown>
ENCODING 228
SWIDTH 42 0
DWIDTH 10 0
BBX 10 17 0 -5
BITMAP
0000
3300
3300
0000
0000
3E00
0300
0300
3F00
6300
6300
6300
3D80
0000
0000
0000
0000
ENDCHAR

STARTCHAR <unknown>
ENCODING 229
SWIDTH 42 0
DWIDTH 10 0
BBX 10 17 0 -5
BITMAP
0000
1C00
3600
1C00
0000
3E00
0300
0300
3F00
6300
6300
6300
3D80
0000
0000
0000
0000
ENDCHAR

STARTCHAR <unknown>
ENCODING 230
SWIDTH 42 0
DWIDTH 10 0
BBX 10 17 0 -5
BITMAP
0000
0000
0000
0000
0000
7780
0CC0
0CC0
7FC0
CC00
CC00
CC40
7F80
0000
0000
0000
0000
ENDCHAR

STARTCHAR <unknown>
ENCODING 231
SWIDTH 42 0
DWIDTH 10 0
BBX 10 17 0 -5
BITMAP
0000
0000
0000
0000
0000
1F00
3180
6000
6000
6000
6000
3180
1F00
0C00
0600
1E00
0000
ENDCHAR

STARTCHAR <unknown>
ENCODING 232
SWIDTH 42 0
DWIDTH 10 0
BBX 10 17 0 -5
BITMAP
0000
1800
0800
0400
0000
1F00
3180
6180
7F80
6000
6000
3180
1F00
0000
0000
0000
0000
ENDCHAR

STARTCHAR <unknown>
ENCODING 233
SWIDTH 42 0
DWIDTH 10 0
BBX 10 17 0 -5
BITMAP
0000
0300
0200
0400
0000
1E00
3180
6180
7F80
6000
6000
3180
1F00
0000
0000
0000
0000
ENDCHAR

STARTCHAR <unknown>
ENCODING 234
SWIDTH 42 0
DWIDTH 10 0
BBX 10 17 0 -5
BITMAP
0000
0C00
1E00
3300
0000
1F00
3180
6180
7F80
6000
6000
3180
1F00
0000
0000
0000
0000
ENDCHAR

STARTCHAR <unknown>
ENCODING 235
SWIDTH 42 0
DWIDTH 10 0
BBX 10 17 0 -5
BITMAP
0000
3300
3300
0000
0000
1F00
3180
6180
7F80
6000
6000
3180
1F00
0000
0000
0000
0000
ENDCHAR

STARTCHAR <unknown>
ENCODING 236
SWIDTH 42 0
DWIDTH 10 0
BBX 10 17 0 -5
BITMAP
0000
0C00
0400
0200
0000
1E00
0600
0600
0600
0600
0600
0600
0600
0000
0000
0000
0000
ENDCHAR

STARTCHAR <unknown>
ENCODING 237
SWIDTH 42 0
DWIDTH 10 0
BBX 10 17 0 -5
BITMAP
0000
0300
0200
0400
0000
1E00
0600
0600
0600
0600
0600
0600
0600
0000
0000
0000
0000
ENDCHAR

STARTCHAR <unknown>
ENCODING 238
SWIDTH 42 0
DWIDTH 10 0
BBX 10 17 0 -5
BITMAP
0000
0400
0E00
1B00
0000
1E00
0600
0600
0600
0600
0600
0600
0600
0000
0000
0000
0000
ENDCHAR

STARTCHAR <unknown>
ENCODING 239
SWIDTH 42 0
DWIDTH 10 0
BBX 10 17 0 -5
BITMAP
0000
3300
3300
0000
0000
1E00
0600
0600
0600
0600
0600
0600
0600
0000
0000
0000
0000
ENDCHAR

STARTCHAR <unknown>
ENCODING 240
SWIDTH 42 0
DWIDTH 10 0
BBX 10 17 0 -5
BITMAP
0000
3200
1C00
0E00
1300
0300
0180
3D80
6380
6180
6180
6180
3F00
0000
0000
0000
0000
ENDCHAR

STARTCHAR <unknown>
ENCODING 241
SWIDTH 42 0
DWIDTH 10 0
BBX 10 17 0 -5
BITMAP
0000
1D00
2E00
0000
0000
6E00
7300
6180
6180
6180
6180
6180
6180
0000
0000
0000
0000
ENDCHAR

STARTCHAR <unknown>
ENCODING 242
SWIDTH 42 0
DWIDTH 10 0
BBX 10 17 0 -5
BITMAP
0000
1800
0800
0400
0000
1E00
3300
6180
6180
6180
6180
3300
1E00
0000
0000
0000
0000
ENDCHAR

STARTCHAR <unknown>
ENCODING 243
SWIDTH 42 0
DWIDTH 10 0
BBX 10 17 0 -5
BITMAP
0000
0600
0400
0800
0000
1E00
3300
6180
6180
6180
6180
3300
1E00
0000
0000
0000
0000
ENDCHAR

STARTCHAR <unknown>
ENCODING 244
SWIDTH 42 0
DWIDTH 10 0
BBX 10 17 0 -5
BITMAP
0000
0C00
1E00
3300
0000
1E00
3300
6180
6180
6180
6180
3300
1E00
0000
0000
0000
0000
ENDCHAR

STARTCHAR <unknown>
ENCODING 245
SWIDTH 42 0
DWIDTH 10 0
BBX 10 17 0 -5
BITMAP
0000
1D00
2E00
0000
0000
1E00
3300
6180
6180
6180
6180
3300
1E00
0000
0000
0000
0000
ENDCHAR

STARTCHAR <unknown>
ENCODING 246
SWIDTH 42 0
DWIDTH 10 0
BBX 10 17 0 -5
BITMAP
0000
3300
3300
0000
0000
1E00
3300
6180
6180
6180
6180
3300
1E00
0000
0000
0000
0000
ENDCHAR

STARTCHAR <unknown>
ENCODING 247
SWIDTH 42 0
DWIDTH 10 0
BBX 10 17 0 -5
BITMAP
0000
0000
0000
0000
0C00
0C00
0000
7F80
7F80
0000
0C00
0C00
0000
0000
0000
0000
0000
ENDCHAR

STARTCHAR <unknown>
ENCODING 248
SWIDTH 42 0
DWIDTH 10 0
BBX 10 17 0 -5
BITMAP
0000
0000
0000
0000
0100
1F00
3300
6580
6580
6980
6980
3300
3E00
2000
0000
0000
0000
ENDCHAR

STARTCHAR <unknown>
ENCODING 249
SWIDTH 42 0
DWIDTH 10 0
BBX 10 17 0 -5
BITMAP
0000
1800
0800
0400
0000
6180
6180
6180
6180
6180
6180
3380
1D80
0000
0000
0000
0000
ENDCHAR

STARTCHAR <unknown>
ENCODING 250
SWIDTH 42 0
DWIDTH 10 0
BBX 10 17 0 -5
BITMAP
0000
0600
0400
0800
0000
6180
6180
6180
6180
6180
6180
3380
1D80
0000
0000
0000
0000
ENDCHAR

STARTCHAR <unknown>
ENCODING 251
SWIDTH 42 0
DWIDTH 10 0
BBX 10 17 0 -5
BITMAP
0000
0C00
1E00
3300
0000
6180
6180
6180
6180
6180
6180
3380
1D80
0000
0000
0000
0000
ENDCHAR

STARTCHAR <unknown>
ENCODING 252
SWIDTH 42 0
DWIDTH 10 0
BBX 10 17 0 -5
BITMAP
0000
3300
3300
0000
0000
6180
6180
6180
6180
6180
6180
3380
1D80
0000
0000
0000
0000
ENDCHAR

STARTCHAR <unknown>
ENCODING 253
SWIDTH 42 0
DWIDTH 10 0
BBX 10 17 0 -5
BITMAP
0000
0600
0400
0800
0000
6180
6180
6180
6180
6180
6180
3380
1D80
0180
0180
3300
1E00
ENDCHAR

STARTCHAR <unknown>
ENCODING 254
SWIDTH 42 0
DWIDTH 10 0
BBX 10 17 0 -5
BITMAP
0000
0000
0000
0000
7000
3000
3700
3980
30C0
30C0
30C0
3980
3700
3000
3000
3000
7800
ENDCHAR

STARTCHAR <unknown>
ENCODING 255
SWIDTH 42 0
DWIDTH 10 0
BBX 10 17 0 -5
BITMAP
0000
3300
3300
0000
0000
6180
6180
6180
6180
6180
6180
3380
1D80
0180
0180
3300
1E00
ENDCHAR
ENDFONT
